<?xml version="1.0" encoding="utf-8"?>
<!-- Generator: Adobe Illustrator 15.0.2, SVG Export Plug-In . SVG Version: 6.00 Build 0)  -->
<!DOCTYPE svg PUBLIC "-//W3C//DTD SVG 1.1//EN" "http://www.w3.org/Graphics/SVG/1.1/DTD/svg11.dtd">
<svg version="1.1" id="Layer_1" xmlns="http://www.w3.org/2000/svg" xmlns:xlink="http://www.w3.org/1999/xlink" x="0px" y="0px"
	 width="512px" height="512px" viewBox="0 0 512 512" enable-background="new 0 0 512 512" xml:space="preserve">
<circle cx="240.312" cy="129.681" r="16.28"/>
<circle cx="344.567" cy="138.191" r="20.567"/>
<path d="M360.821,0C289.19,0,189.248,58.049,99.177,102.021C29.354,136.108,6.552,192.091,1.16,242.432l20.003,18.455L50.95,239.61
	l9.22,22.695l33.333-19.858l17.021,25.532l34.751-28.369l19.149,31.915l26.951-25.532l22.695,36.17l21.277-22.695l29.078,24.113
	l21.985-32.624l21.986,26.595L324,250.958l30.496,16.312l17.021-16.312l-10.638,31.915l-29.788-18.439l-21.276,32.624
	l-19.858-26.241l-21.276,33.333l-31.915-26.596l-22.695,26.596l-24.823-39.716l-29.078,31.205L141.021,256l-31.915,36.092
	l-19.149-32.624l-33.333,24.823L47.404,256l-26.95,21.907l-20.083-26.46c-0.42,6.111-0.605,12.112-0.605,17.95
	c0,83.688,226.361,100.709,300.83,100.709L298,512h214c0,0,0-285.156,0-352.532S432.452,0,360.821,0z M240.312,163.723
	c-18.801,0-34.042-15.241-34.042-34.042s15.241-34.042,34.042-34.042s34.042,15.241,34.042,34.042S259.113,163.723,240.312,163.723z
	 M344.567,195.639c-31.728,0-57.447-25.72-57.447-57.447s25.72-57.447,57.447-57.447s57.447,25.72,57.447,57.447
	S376.295,195.639,344.567,195.639z"/>
</svg>
